<svg xmlns="http://www.w3.org/2000/svg" width="24" height="24">
    <path d="M11.42 2.987c-1.163.075-2.758.508-3.114.845-.527.5-.333 1.387.358 1.646.297.111.411.103.876-.06 1.309-.46 2.582-.559 3.86-.299a7.048 7.048 0 0 1 5.403 5.132c.119.466.154.697.196 1.294.118 1.684-.377 3.333-1.414 4.715-.295.393-.961 1.064-1.308 1.316l-.257.187-.02-1.531-.02-1.532-.109-.186a1.01 1.01 0 0 0-1.742 0l-.109.186v5.6l.111.189c.125.213.318.375.539.454.22.078 5.44.078 5.66 0 .221-.079.414-.241.539-.454.095-.161.111-.233.111-.489 0-.254-.017-.328-.108-.484a1.209 1.209 0 0 0-.254-.295c-.267-.203-.404-.221-1.705-.221h-1.194l.339-.302c2.063-1.835 3.194-4.718 2.94-7.498-.287-3.135-2.212-5.936-5.016-7.297a9.081 9.081 0 0 0-4.562-.916M5.36 6.195c-.557.183-.835.72-.676 1.305.057.209.409.558.622.617.427.118.862-.016 1.112-.342.387-.507.221-1.21-.355-1.503-.172-.088-.545-.129-.703-.077m-1.56 3.84c-.456.149-.728.511-.728.968 0 .413.259.798.633.941.209.08.612.061.803-.038.58-.3.725-1.116.28-1.58a1.33 1.33 0 0 0-.285-.214c-.172-.088-.544-.129-.703-.077m.417 4.161c-.384.174-.598.542-.57.978a.977.977 0 0 0 1.678.632c.182-.182.315-.48.315-.706 0-.182-.131-.511-.259-.654-.285-.315-.785-.423-1.164-.25m2.743 3.201c-.622.127-.973.817-.705 1.383.181.381.5.588.905.588s.724-.207.905-.588c.283-.598-.12-1.313-.785-1.391a1.242 1.242 0 0 0-.32.008m3.64 1.627a1.078 1.078 0 0 0-.505.516c-.228.483-.021 1.046.482 1.312a.849.849 0 0 0 .423.085c.727 0 1.212-.749.905-1.397a1.06 1.06 0 0 0-.514-.518c-.188-.079-.608-.078-.791.002"
          fill-rule="evenodd"/>
</svg>