<svg width="143" height="35" viewBox="0 0 143 35" fill="none" xmlns="http://www.w3.org/2000/svg"><path d="M17.5 0l2.465 9.104 6.996-6.326-2.848 8.992 9.306-1.54-7.258 6.025 8.66 3.736-9.362 1.144 5.267 7.825-8.495-4.099.2 9.43L17.5 26.25l-4.93 8.041.2-9.43-8.496 4.1 5.267-7.826L.178 19.99l8.661-3.735-7.258-6.025 9.306 1.54L8.04 2.778l6.996 6.326L17.5 0zm26.98 25V10.8h2.76V25h-2.76zm15.203 0h-2.68v-5.88c0-.84-.147-1.453-.44-1.84-.294-.387-.7-.58-1.22-.58-.36 0-.727.093-1.1.28a3.38 3.38 0 00-.98.78c-.294.32-.507.693-.64 1.12V25h-2.68V14.52h2.42v1.94a3.804 3.804 0 011.02-1.14c.413-.32.886-.56 1.42-.72a5.657 5.657 0 011.72-.26c.653 0 1.186.12 1.6.36.426.227.746.54.96.94a3.8 3.8 0 01.46 1.32c.093.493.14.993.14 1.5V25zm9.49 0l-3.06-4.52-1.42 1.4V25h-2.68V10.4h2.68v8.84l4.22-4.7h2.84l-3.9 4.44 4.18 6.02h-2.86zm3.932 0v-2.88h2.2V25h-2.2zm21.557-14.2V25h-2.74v-6.06h-6.44V25h-2.76V10.8h2.76v5.74h6.44V10.8h2.74zm7.367 14.4c-.854 0-1.62-.14-2.3-.42a5.202 5.202 0 01-1.74-1.2 5.454 5.454 0 01-1.08-1.74 5.646 5.646 0 01-.38-2.06c0-.733.126-1.427.38-2.08a5.454 5.454 0 011.08-1.74c.48-.507 1.06-.9 1.74-1.18.68-.293 1.446-.44 2.3-.44.853 0 1.613.147 2.28.44.68.28 1.26.673 1.74 1.18a5.03 5.03 0 011.08 1.74 5.71 5.71 0 01.38 2.08c0 .72-.127 1.407-.38 2.06a5.03 5.03 0 01-1.08 1.74 4.992 4.992 0 01-1.72 1.2c-.68.28-1.447.42-2.3.42zm-2.74-5.42c0 .613.12 1.16.36 1.64a2.8 2.8 0 00.98 1.1c.413.267.88.4 1.4.4.506 0 .966-.133 1.38-.4.413-.28.74-.653.98-1.12.253-.48.38-1.027.38-1.64 0-.6-.127-1.14-.38-1.62a2.777 2.777 0 00-.98-1.12 2.495 2.495 0 00-1.38-.4c-.52 0-.987.14-1.4.42a2.77 2.77 0 00-.98 1.12c-.24.467-.36 1.007-.36 1.62zm9.929 1.3v-6.56h2.68v5.98c0 .8.146 1.407.44 1.82.293.4.726.6 1.3.6a2.73 2.73 0 001.02-.2c.346-.147.66-.36.94-.64.293-.28.54-.633.74-1.06v-6.5h2.68V22c0 .28.046.48.14.6.106.12.273.193.5.22V25a9.09 9.09 0 01-.68.08c-.174.027-.334.04-.48.04-.48 0-.874-.107-1.18-.32a1.344 1.344 0 01-.52-.92l-.06-.84a4.67 4.67 0 01-1.8 1.62c-.734.36-1.54.54-2.42.54-1.08 0-1.9-.347-2.46-1.04-.56-.707-.84-1.733-.84-3.08zm16.323 4.12a7.488 7.488 0 01-2.56-.44 5.761 5.761 0 01-2.1-1.3l.96-1.74c.627.507 1.24.88 1.84 1.12.613.24 1.2.36 1.76.36.52 0 .933-.093 1.24-.28a.912.912 0 00.48-.84c0-.253-.087-.447-.26-.58-.173-.147-.427-.273-.76-.38-.32-.107-.713-.227-1.18-.36a18.36 18.36 0 01-1.94-.74c-.52-.24-.913-.54-1.18-.9-.253-.373-.38-.847-.38-1.42 0-.693.173-1.287.52-1.78.36-.507.853-.9 1.48-1.18.64-.28 1.387-.42 2.24-.42.747 0 1.453.12 2.12.36a4.93 4.93 0 011.82 1.12l-1.08 1.7c-.533-.413-1.04-.713-1.52-.9-.48-.2-.967-.3-1.46-.3-.28 0-.547.033-.8.1-.24.067-.44.18-.6.34-.147.147-.22.36-.22.64 0 .253.067.453.2.6.147.133.36.253.64.36.293.107.647.227 1.06.36.84.24 1.547.487 2.12.74.587.253 1.027.567 1.32.94.293.36.44.86.44 1.5 0 1.04-.38 1.853-1.14 2.44-.76.587-1.78.88-3.06.88zm10.883 0c-.84 0-1.6-.14-2.28-.42a5.354 5.354 0 01-1.74-1.18 5.618 5.618 0 01-1.12-1.72 5.634 5.634 0 01-.38-2.06c0-1 .22-1.913.66-2.74a5.159 5.159 0 011.92-1.98c.84-.507 1.826-.76 2.96-.76 1.146 0 2.126.253 2.94.76a4.923 4.923 0 011.86 1.98c.44.813.66 1.693.66 2.64a6.7 6.7 0 01-.02.5c-.014.16-.027.293-.04.4h-8.1c.053.533.206 1 .46 1.4.266.4.6.707 1 .92.413.2.853.3 1.32.3.533 0 1.033-.127 1.5-.38.48-.267.806-.613.98-1.04l2.3.64a4.311 4.311 0 01-1.1 1.42 5.27 5.27 0 01-1.66.98c-.64.227-1.347.34-2.12.34zm-2.74-6.28h5.48c-.054-.533-.207-.993-.46-1.38-.24-.4-.56-.707-.96-.92a2.67 2.67 0 00-1.34-.34c-.48 0-.92.113-1.32.34a2.63 2.63 0 00-.96.92c-.24.387-.387.847-.44 1.38z" fill="#598D66"/></svg>124.294 23.08 124.881 23.2 125.441 23.2C125.961 23.2 126.374 23.1067 126.681 22.92C127.001 22.7333 127.161 22.4533 127.161 22.08C127.161 21.8267 127.074 21.6333 126.901 21.5C126.728 21.3533 126.474 21.2267 126.141 21.12C125.821 21.0133 125.428 20.8933 124.961 20.76C124.188 20.5067 123.541 20.26 123.021 20.02C122.501 19.78 122.108 19.48 121.841 19.12C121.588 18.7467 121.461 18.2733 121.461 17.7C121.461 17.0067 121.634 16.4133 121.981 15.92C122.341 15.4133 122.834 15.02 123.461 14.74C124.101 14.46 124.848 14.32 125.701 14.32C126.448 14.32 127.154 14.44 127.821 14.68C128.488 14.9067 129.094 15.28 129.641 15.8L128.561 17.5C128.028 17.0867 127.521 16.7867 127.041 16.6C126.561 16.4 126.074 16.3 125.581 16.3C125.301 16.3 125.034 16.3333 124.781 16.4C124.541 16.4667 124.341 16.58 124.181 16.74C124.034 16.8867 123.961 17.1 123.961 17.38C123.961 17.6333 124.028 17.8333 124.161 17.98C124.308 18.1133 124.521 18.2333 124.801 18.34C125.094 18.4467 125.448 18.5667 125.861 18.7C126.701 18.94 127.408 19.1867 127.981 19.44C128.568 19.6933 129.008 20.0067 129.301 20.38C129.594 20.74 129.741 21.24 129.741 21.88C129.741 22.92 129.361 23.7333 128.601 24.32C127.841 24.9067 126.821 25.2 125.541 25.2ZM136.424 25.2C135.584 25.2 134.824 25.06 134.144 24.78C133.464 24.4867 132.884 24.0933 132.404 23.6C131.924 23.0933 131.55 22.52 131.284 21.88C131.03 21.2267 130.904 20.54 130.904 19.82C130.904 18.82 131.124 17.9067 131.564 17.08C132.017 16.2533 132.657 15.5933 133.484 15.1C134.324 14.5933 135.31 14.34 136.444 14.34C137.59 14.34 138.57 14.5933 139.384 15.1C140.197 15.5933 140.817 16.2533 141.244 17.08C141.684 17.8933 141.904 18.7733 141.904 19.72C141.904 19.88 141.897 20.0467 141.884 20.22C141.87 20.38 141.857 20.5133 141.844 20.62H133.744C133.797 21.1533 133.95 21.62 134.204 22.02C134.47 22.42 134.804 22.7267 135.204 22.94C135.617 23.14 136.057 23.24 136.524 23.24C137.057 23.24 137.557 23.1133 138.024 22.86C138.504 22.5933 138.83 22.2467 139.004 21.82L141.304 22.46C141.05 22.9933 140.684 23.4667 140.204 23.88C139.737 24.2933 139.184 24.62 138.544 24.86C137.904 25.0867 137.197 25.2 136.424 25.2ZM133.684 18.92H139.164C139.11 18.3867 138.957 17.9267 138.704 17.54C138.464 17.14 138.144 16.8333 137.744 16.62C137.344 16.3933 136.897 16.28 136.404 16.28C135.924 16.28 135.484 16.3933 135.084 16.62C134.697 16.8333 134.377 17.14 134.124 17.54C133.884 17.9267 133.737 18.3867 133.684 18.92Z"
          fill="#598D66"/>
</svg>
