<?xml version="1.0" encoding="utf-8"?><svg xmlns="http://www.w3.org/2000/svg" width="24" height="24" viewBox="0 0 24 24"><path d="M6.695 6.057a1.04 1.04 0 00-.567.459c-.092.156-.108.229-.107.484 0 .212.022.341.074.44.04.077 1.066 1.134 2.279 2.35L10.579 12l-2.205 2.21c-1.213 1.215-2.239 2.273-2.279 2.35-.052.099-.074.228-.074.44-.001.258.015.327.112.492.13.222.369.409.603.473.203.054.531.024.709-.066.074-.037 1.13-1.06 2.345-2.273L12 13.421l2.21 2.205c1.215 1.213 2.273 2.239 2.35 2.279.099.052.228.074.44.074.258.001.327-.015.492-.112.222-.13.409-.369.473-.603a1.187 1.187 0 00-.066-.709c-.037-.074-1.06-1.13-2.273-2.345L13.421 12l2.205-2.21c1.213-1.216 2.239-2.273 2.279-2.35.052-.099.074-.228.074-.44.001-.255-.015-.328-.107-.484a1.02 1.02 0 00-.582-.461c-.235-.071-.347-.069-.613.009-.209.061-.299.145-2.447 2.289L12 10.578 9.77 8.353C7.622 6.209 7.532 6.125 7.323 6.064c-.257-.076-.404-.077-.628-.007" fill-rule="evenodd"/></svg>