<?xml version="1.0" encoding="utf-8"?><svg viewBox="0 0 80 79" xmlns="http://www.w3.org/2000/svg" xmlns:xlink="http://www.w3.org/1999/xlink"><style>:root>svg{display:none}:root>svg:target{display:block}</style><svg viewBox="0 0 30 30" id="burger" xmlns="http://www.w3.org/2000/svg"><path fill-rule="evenodd" clip-rule="evenodd" d="M4.688 21.563a.937.937 0 01.937-.938h18.75a.938.938 0 010 1.875H5.625a.938.938 0 01-.938-.938zm0-7.5a.937.937 0 01.937-.938h18.75a.938.938 0 010 1.875H5.625a.938.938 0 01-.938-.938zm0-7.5a.937.937 0 01.937-.938h18.75a.937.937 0 010 1.875H5.625a.937.937 0 01-.938-.938z"/></svg><svg viewBox="0 0 24 24" id="close" xmlns="http://www.w3.org/2000/svg"><path d="M6.695 6.057a1.04 1.04 0 00-.567.459c-.092.156-.108.229-.107.484 0 .212.022.341.074.44.04.077 1.066 1.134 2.279 2.35L10.579 12l-2.205 2.21c-1.213 1.215-2.239 2.273-2.279 2.35-.052.099-.074.228-.074.44-.001.258.015.327.112.492.13.222.369.409.603.473.203.054.531.024.709-.066.074-.037 1.13-1.06 2.345-2.273L12 13.421l2.21 2.205c1.215 1.213 2.273 2.239 2.35 2.279.099.052.228.074.44.074.258.001.327-.015.492-.112.222-.13.409-.369.473-.603a1.187 1.187 0 00-.066-.709c-.037-.074-1.06-1.13-2.273-2.345L13.421 12l2.205-2.21c1.213-1.216 2.239-2.273 2.279-2.35.052-.099.074-.228.074-.44.001-.255-.015-.328-.107-.484a1.02 1.02 0 00-.582-.461c-.235-.071-.347-.069-.613.009-.209.061-.299.145-2.447 2.289L12 10.578 9.77 8.353C7.622 6.209 7.532 6.125 7.323 6.064c-.257-.076-.404-.077-.628-.007" fill-rule="evenodd"/></svg><svg viewBox="0 0 24 24" id="facebook" xmlns="http://www.w3.org/2000/svg"><g clip-path="url(#cclip0_2_709)"><path d="M15.402 21v-6.966h2.333l.349-2.708h-2.682V9.598c0-.784.218-1.319 1.342-1.319h1.434V5.857a19.188 19.188 0 00-2.09-.107c-2.067 0-3.482 1.262-3.482 3.58v1.996h-2.338v2.708h2.338V21H4a1 1 0 01-1-1V4a1 1 0 011-1h16a1 1 0 011 1v16a1 1 0 01-1 1h-4.598z"/></g><defs><clipPath id="cclip0_2_709"><path d="M0 0h24v24H0z"/></clipPath></defs></svg><svg viewBox="0 0 24 24" id="instagram" xmlns="http://www.w3.org/2000/svg"><g clip-path="url(#dclip0_10_334)"><path d="M12 2c2.717 0 3.056.01 4.122.06 1.065.05 1.79.217 2.428.465.66.254 1.216.598 1.772 1.153.509.5.902 1.105 1.153 1.772.247.637.415 1.363.465 2.428.047 1.066.06 1.405.06 4.122 0 2.717-.01 3.056-.06 4.122-.05 1.065-.218 1.79-.465 2.428a4.883 4.883 0 01-1.153 1.772c-.5.508-1.105.902-1.772 1.153-.637.247-1.363.415-2.428.465-1.066.047-1.405.06-4.122.06-2.717 0-3.056-.01-4.122-.06-1.065-.05-1.79-.218-2.428-.465a4.89 4.89 0 01-1.772-1.153 4.904 4.904 0 01-1.153-1.772c-.248-.637-.415-1.363-.465-2.428C2.013 15.056 2 14.717 2 12c0-2.717.01-3.056.06-4.122.05-1.066.217-1.79.465-2.428a4.88 4.88 0 011.153-1.772A4.897 4.897 0 015.45 2.525c.638-.248 1.362-.415 2.428-.465C8.944 2.013 9.283 2 12 2zm0 5a5 5 0 100 10 5 5 0 000-10zm6.5-.25a1.25 1.25 0 10-2.5 0 1.25 1.25 0 002.5 0zM12 9a3 3 0 110 6 3 3 0 010-6z"/></g><defs><clipPath id="dclip0_10_334"><path d="M0 0h24v24H0z"/></clipPath></defs></svg><svg viewBox="0 0 24 24" id="minus" xmlns="http://www.w3.org/2000/svg"><path d="M4.695 11.057a1.04 1.04 0 00-.567.459c-.091.156-.108.23-.108.484 0 .256.016.328.111.489.125.213.318.375.539.454.223.079 14.437.079 14.66 0 .221-.079.414-.241.539-.454.095-.161.111-.233.111-.489 0-.254-.017-.328-.108-.484a1.02 1.02 0 00-.582-.461c-.263-.079-14.343-.077-14.595.002" fill-rule="evenodd"/></svg><svg viewBox="0 0 24 24" id="plus" xmlns="http://www.w3.org/2000/svg"><path d="M11.695 4.057a1.04 1.04 0 00-.567.459l-.108.184-.011 3.15-.011 3.15H7.945c-3.312 0-3.27-.003-3.563.221-.08.061-.195.194-.254.295-.091.156-.108.23-.108.484 0 .256.016.328.111.489.125.213.318.375.539.454.12.043.763.054 3.239.055l3.089.002.011 3.153.011 3.153.121.197a.998.998 0 001.718 0l.121-.197.011-3.153.011-3.153 3.089-.002c2.476-.001 3.119-.012 3.239-.055.221-.079.414-.241.539-.454.095-.161.111-.233.111-.489 0-.254-.017-.328-.108-.484a1.209 1.209 0 00-.254-.295c-.293-.224-.251-.221-3.563-.221h-3.053l-.011-3.15-.011-3.15-.108-.184a1.005 1.005 0 00-1.177-.459" fill-rule="evenodd"/></svg><svg viewBox="0 0 24 24" id="rotate" xmlns="http://www.w3.org/2000/svg"><path d="M11.42 2.987c-1.163.075-2.758.508-3.114.845-.527.5-.333 1.387.358 1.646.297.111.411.103.876-.06 1.309-.46 2.582-.559 3.86-.299a7.048 7.048 0 015.403 5.132c.119.466.154.697.196 1.294.118 1.684-.377 3.333-1.414 4.715-.295.393-.961 1.064-1.308 1.316l-.257.187-.02-1.531-.02-1.532-.109-.186a1.01 1.01 0 00-1.742 0l-.109.186v5.6l.111.189c.125.213.318.375.539.454.22.078 5.44.078 5.66 0 .221-.079.414-.241.539-.454.095-.161.111-.233.111-.489 0-.254-.017-.328-.108-.484a1.209 1.209 0 00-.254-.295c-.267-.203-.404-.221-1.705-.221h-1.194l.339-.302c2.063-1.835 3.194-4.718 2.94-7.498-.287-3.135-2.212-5.936-5.016-7.297a9.081 9.081 0 00-4.562-.916M5.36 6.195c-.557.183-.835.72-.676 1.305.057.209.409.558.622.617.427.118.862-.016 1.112-.342.387-.507.221-1.21-.355-1.503-.172-.088-.545-.129-.703-.077m-1.56 3.84c-.456.149-.728.511-.728.968 0 .413.259.798.633.941.209.08.612.061.803-.038.58-.3.725-1.116.28-1.58a1.33 1.33 0 00-.285-.214c-.172-.088-.544-.129-.703-.077m.417 4.161c-.384.174-.598.542-.57.978a.977.977 0 001.678.632c.182-.182.315-.48.315-.706 0-.182-.131-.511-.259-.654-.285-.315-.785-.423-1.164-.25m2.743 3.201c-.622.127-.973.817-.705 1.383.181.381.5.588.905.588s.724-.207.905-.588c.283-.598-.12-1.313-.785-1.391a1.242 1.242 0 00-.32.008m3.64 1.627a1.078 1.078 0 00-.505.516c-.228.483-.021 1.046.482 1.312a.849.849 0 00.423.085c.727 0 1.212-.749.905-1.397a1.06 1.06 0 00-.514-.518c-.188-.079-.608-.078-.791.002" fill-rule="evenodd"/></svg><svg viewBox="0 0 22 22" id="shopping-cart" xmlns="http://www.w3.org/2000/svg"><path d="M.355.094a1.183 1.183 0 00-.246.244C.003.484 0 .499 0 .917c0 .415.003.433.107.576.058.081.156.183.217.226.255.182.316.188 1.93.188h1.512l1.164 5.82c.799 3.997 1.197 5.912 1.27 6.111a2.82 2.82 0 002.073 1.766c.413.079 9.698.079 10.111 0a2.821 2.821 0 002.073-1.765c.074-.205.317-1.399.824-4.057.696-3.645.719-3.781.719-4.227 0-.425-.007-.47-.09-.603a1.11 1.11 0 00-.214-.237c-.287-.219.25-.205-7.909-.205H6.318l-.375-1.879A91.692 91.692 0 005.531.623 1.032 1.032 0 005.164.11L5.012 0H.494L.355.094m19.518 6.417c0 .011-.281 1.492-.624 3.291-.39 2.041-.652 3.325-.696 3.416a.909.909 0 01-.473.408c-.193.069-9.31.069-9.503 0a.865.865 0 01-.472-.405c-.049-.1-.31-1.327-.717-3.361a886.217 886.217 0 00-.66-3.288l-.019-.082h6.582c3.62 0 6.582.009 6.582.021m-12.139 10.9c-.813.212-1.396.995-1.389 1.865a1.9 1.9 0 001.905 1.881 1.93 1.93 0 001.651-.942c.334-.551.334-1.379 0-1.93a1.935 1.935 0 00-2.167-.874m10.083 0c-.813.212-1.396.995-1.388 1.865a1.9 1.9 0 001.904 1.881c.851 0 1.631-.59 1.84-1.391.129-.493.054-1.08-.189-1.481a1.935 1.935 0 00-2.167-.874M8.323 19.25c0 .049-.024.073-.073.073-.049 0-.073-.024-.073-.073 0-.049.024-.073.073-.073.049 0 .073.024.073.073m10.084 0c0 .049-.025.073-.074.073-.049 0-.073-.024-.073-.073 0-.049.024-.073.073-.073.049 0 .074.024.074.073" fill-rule="evenodd"/></svg><svg fill="none" viewBox="0 0 80 79" id="star" xmlns="http://www.w3.org/2000/svg"><path d="M46.64 21.923l11.883-10.745-4.838 15.272-.739 2.332 2.414-.4 15.805-2.614-12.327 10.231-1.882 1.563 2.246.969 14.71 6.345-15.901 1.943-2.429.297 1.366 2.03 8.944 13.29-14.427-6.962-2.204-1.063.052 2.446.34 16.016-8.374-13.657L40 57.13l-1.279 2.086-8.373 13.657.339-16.016.052-2.446-2.204 1.063-14.428 6.962 8.945-13.29 1.366-2.03-2.429-.297-15.9-1.943 14.709-6.345 2.246-.969L21.162 36 8.835 25.768l15.805 2.615 2.414.399-.739-2.332-4.838-15.272L33.36 21.923l1.815 1.64.64-2.36L40 5.738l4.187 15.463.64 2.362 1.814-1.641z" stroke="#EEDB6D" stroke-width="3"/></svg><svg viewBox="0 0 24 24" id="youtube" xmlns="http://www.w3.org/2000/svg"><g clip-path="url(#jclip0_10_337)"><path d="M21.543 6.498C22 8.28 22 12 22 12s0 3.72-.457 5.502c-.254.985-.997 1.76-1.938 2.022C17.896 20 12 20 12 20s-5.893 0-7.605-.476c-.945-.266-1.687-1.04-1.938-2.022C2 15.72 2 12 2 12s0-3.72.457-5.502c.254-.985.997-1.76 1.938-2.022C6.107 4 12 4 12 4s5.896 0 7.605.476c.945.266 1.687 1.04 1.938 2.022zM10 15.5l6-3.5-6-3.5v7z"/></g><defs><clipPath id="jclip0_10_337"><path d="M0 0h24v24H0z"/></clipPath></defs></svg><svg viewBox="0 0 24 24" id="zoom" xmlns="http://www.w3.org/2000/svg"><path d="M9.207 2.043A8.055 8.055 0 004.9 3.847a7.857 7.857 0 00-2.1 2.682 7.993 7.993 0 00.989 8.511c.286.354.972 1.027 1.311 1.286 1.643 1.255 3.734 1.85 5.732 1.632a8.205 8.205 0 003.633-1.326l.446-.301 2.714 2.717c1.493 1.494 2.791 2.762 2.883 2.817.459.274 1.079.103 1.359-.373.097-.165.113-.235.113-.492 0-.254-.016-.327-.107-.48-.061-.101-1.302-1.372-2.825-2.895l-2.717-2.714.301-.446a7.98 7.98 0 00.568-7.936 7.857 7.857 0 00-2.1-2.682c-1.617-1.353-3.763-2.01-5.893-1.804m1.357 1.996a5.991 5.991 0 015.107 4.021c.497 1.457.397 3.191-.261 4.52-.86 1.736-2.354 2.898-4.25 3.305-.606.13-1.714.13-2.32 0-1.899-.407-3.389-1.566-4.25-3.305-.658-1.329-.758-3.063-.261-4.52a5.892 5.892 0 011.402-2.255 5.918 5.918 0 014.833-1.766m-.869 2.018a1.04 1.04 0 00-.567.459L9.02 6.7l-.012 1.15L8.995 9H7.944c-1.147 0-1.301.022-1.562.221-.08.061-.195.194-.254.295-.091.156-.108.23-.108.484 0 .256.016.328.111.489.061.103.173.236.25.294.261.2.357.213 1.527.215L8.995 11l.013 1.153.012 1.154.121.196a.998.998 0 001.718 0l.121-.196.012-1.154.013-1.153 1.087-.002c1.17-.002 1.266-.015 1.527-.215.077-.058.189-.191.25-.294.095-.161.111-.233.111-.489 0-.254-.017-.328-.108-.484a1.209 1.209 0 00-.254-.295C13.357 9.022 13.203 9 12.056 9h-1.051l-.013-1.15-.012-1.15-.108-.184a1.005 1.005 0 00-1.177-.459" fill-rule="evenodd"/></svg></svg>