<?xml version="1.0" encoding="utf-8"?><svg viewBox="0 0 80 79" xmlns="http://www.w3.org/2000/svg" xmlns:xlink="http://www.w3.org/1999/xlink"><style>:root>svg{display:none}:root>svg:target{display:block}</style><svg viewBox="0 0 30 30" id="burger" xmlns="http://www.w3.org/2000/svg"><path fill-rule="evenodd" clip-rule="evenodd" d="M4.688 21.563a.937.937 0 01.937-.938h18.75a.938.938 0 010 1.875H5.625a.938.938 0 01-.938-.938zm0-7.5a.937.937 0 01.937-.938h18.75a.938.938 0 010 1.875H5.625a.938.938 0 01-.938-.938zm0-7.5a.937.937 0 01.937-.938h18.75a.937.937 0 010 1.875H5.625a.937.937 0 01-.938-.938z"/></svg><svg viewBox="0 0 30 30" id="close" xmlns="http://www.w3.org/2000/svg"><path d="M7.1 6.53c-.531.23-.788.839-.573 1.359.053.13 1.118 1.228 3.537 3.649L13.525 15l-3.458 3.463c-1.902 1.904-3.493 3.534-3.537 3.622a1.055 1.055 0 001.42 1.361c.173-.077 1.022-.898 3.65-3.523l3.426-3.422 3.424 3.429c2.329 2.332 3.489 3.46 3.625 3.524.674.316 1.478-.21 1.474-.965-.002-.462-.005-.465-3.613-4.076L16.527 15l3.409-3.412c3.622-3.626 3.612-3.615 3.612-4.088 0-.749-.802-1.269-1.473-.954-.136.064-1.296 1.192-3.625 3.524l-3.424 3.429-3.426-3.422C8.972 7.452 8.123 6.631 7.95 6.554c-.266-.12-.606-.13-.85-.024" fill-rule="evenodd"/></svg><svg viewBox="0 0 24 24" id="facebook" xmlns="http://www.w3.org/2000/svg"><g clip-path="url(#cclip0_2_709)"><path d="M15.402 21v-6.966h2.333l.349-2.708h-2.682V9.598c0-.784.218-1.319 1.342-1.319h1.434V5.857a19.188 19.188 0 00-2.09-.107c-2.067 0-3.482 1.262-3.482 3.58v1.996h-2.338v2.708h2.338V21H4a1 1 0 01-1-1V4a1 1 0 011-1h16a1 1 0 011 1v16a1 1 0 01-1 1h-4.598z"/></g><defs><clipPath id="cclip0_2_709"><path d="M0 0h24v24H0z"/></clipPath></defs></svg><svg viewBox="0 0 24 24" id="instagram" xmlns="http://www.w3.org/2000/svg"><g clip-path="url(#dclip0_10_334)"><path d="M12 2c2.717 0 3.056.01 4.122.06 1.065.05 1.79.217 2.428.465.66.254 1.216.598 1.772 1.153.509.5.902 1.105 1.153 1.772.247.637.415 1.363.465 2.428.047 1.066.06 1.405.06 4.122 0 2.717-.01 3.056-.06 4.122-.05 1.065-.218 1.79-.465 2.428a4.883 4.883 0 01-1.153 1.772c-.5.508-1.105.902-1.772 1.153-.637.247-1.363.415-2.428.465-1.066.047-1.405.06-4.122.06-2.717 0-3.056-.01-4.122-.06-1.065-.05-1.79-.218-2.428-.465a4.89 4.89 0 01-1.772-1.153 4.904 4.904 0 01-1.153-1.772c-.248-.637-.415-1.363-.465-2.428C2.013 15.056 2 14.717 2 12c0-2.717.01-3.056.06-4.122.05-1.066.217-1.79.465-2.428a4.88 4.88 0 011.153-1.772A4.897 4.897 0 015.45 2.525c.638-.248 1.362-.415 2.428-.465C8.944 2.013 9.283 2 12 2zm0 5a5 5 0 100 10 5 5 0 000-10zm6.5-.25a1.25 1.25 0 10-2.5 0 1.25 1.25 0 002.5 0zM12 9a3 3 0 110 6 3 3 0 010-6z"/></g><defs><clipPath id="dclip0_10_334"><path d="M0 0h24v24H0z"/></clipPath></defs></svg><svg viewBox="0 0 22 22" id="shopping-cart" xmlns="http://www.w3.org/2000/svg"><path d="M.355.094a1.183 1.183 0 00-.246.244C.003.484 0 .499 0 .917c0 .415.003.433.107.576.058.081.156.183.217.226.255.182.316.188 1.93.188h1.512l1.164 5.82c.799 3.997 1.197 5.912 1.27 6.111a2.82 2.82 0 002.073 1.766c.413.079 9.698.079 10.111 0a2.821 2.821 0 002.073-1.765c.074-.205.317-1.399.824-4.057.696-3.645.719-3.781.719-4.227 0-.425-.007-.47-.09-.603a1.11 1.11 0 00-.214-.237c-.287-.219.25-.205-7.909-.205H6.318l-.375-1.879A91.692 91.692 0 005.531.623 1.032 1.032 0 005.164.11L5.012 0H.494L.355.094m19.518 6.417c0 .011-.281 1.492-.624 3.291-.39 2.041-.652 3.325-.696 3.416a.909.909 0 01-.473.408c-.193.069-9.31.069-9.503 0a.865.865 0 01-.472-.405c-.049-.1-.31-1.327-.717-3.361a886.217 886.217 0 00-.66-3.288l-.019-.082h6.582c3.62 0 6.582.009 6.582.021m-12.139 10.9c-.813.212-1.396.995-1.389 1.865a1.9 1.9 0 001.905 1.881 1.93 1.93 0 001.651-.942c.334-.551.334-1.379 0-1.93a1.935 1.935 0 00-2.167-.874m10.083 0c-.813.212-1.396.995-1.388 1.865a1.9 1.9 0 001.904 1.881c.851 0 1.631-.59 1.84-1.391.129-.493.054-1.08-.189-1.481a1.935 1.935 0 00-2.167-.874M8.323 19.25c0 .049-.024.073-.073.073-.049 0-.073-.024-.073-.073 0-.049.024-.073.073-.073.049 0 .073.024.073.073m10.084 0c0 .049-.025.073-.074.073-.049 0-.073-.024-.073-.073 0-.049.024-.073.073-.073.049 0 .074.024.074.073" fill-rule="evenodd"/></svg><svg fill="none" viewBox="0 0 80 79" id="star" xmlns="http://www.w3.org/2000/svg"><path d="M46.64 21.923l11.883-10.745-4.838 15.272-.739 2.332 2.414-.4 15.805-2.614-12.327 10.231-1.882 1.563 2.246.969 14.71 6.345-15.901 1.943-2.429.297 1.366 2.03 8.944 13.29-14.427-6.962-2.204-1.063.052 2.446.34 16.016-8.374-13.657L40 57.13l-1.279 2.086-8.373 13.657.339-16.016.052-2.446-2.204 1.063-14.428 6.962 8.945-13.29 1.366-2.03-2.429-.297-15.9-1.943 14.709-6.345 2.246-.969L21.162 36 8.835 25.768l15.805 2.615 2.414.399-.739-2.332-4.838-15.272L33.36 21.923l1.815 1.64.64-2.36L40 5.738l4.187 15.463.64 2.362 1.814-1.641z" stroke="#EEDB6D" stroke-width="3"/></svg><svg viewBox="0 0 24 24" id="youtube" xmlns="http://www.w3.org/2000/svg"><g clip-path="url(#gclip0_10_337)"><path d="M21.543 6.498C22 8.28 22 12 22 12s0 3.72-.457 5.502c-.254.985-.997 1.76-1.938 2.022C17.896 20 12 20 12 20s-5.893 0-7.605-.476c-.945-.266-1.687-1.04-1.938-2.022C2 15.72 2 12 2 12s0-3.72.457-5.502c.254-.985.997-1.76 1.938-2.022C6.107 4 12 4 12 4s5.896 0 7.605.476c.945.266 1.687 1.04 1.938 2.022zM10 15.5l6-3.5-6-3.5v7z"/></g><defs><clipPath id="gclip0_10_337"><path d="M0 0h24v24H0z"/></clipPath></defs></svg></svg>