<svg width="30" height="30" xmlns="http://www.w3.org/2000/svg">
    <path d="M7.1 6.53c-.531.23-.788.839-.573 1.359.053.13 1.118 1.228 3.537 3.649L13.525 15l-3.458 3.463c-1.902 1.904-3.493 3.534-3.537 3.622a1.055 1.055 0 0 0 1.42 1.361c.173-.077 1.022-.898 3.65-3.523l3.426-3.422 3.424 3.429c2.329 2.332 3.489 3.46 3.625 3.524.674.316 1.478-.21 1.474-.965-.002-.462-.005-.465-3.613-4.076L16.527 15l3.409-3.412c3.622-3.626 3.612-3.615 3.612-4.088 0-.749-.802-1.269-1.473-.954-.136.064-1.296 1.192-3.625 3.524l-3.424 3.429-3.426-3.422C8.972 7.452 8.123 6.631 7.95 6.554c-.266-.12-.606-.13-.85-.024"
          fill-rule="evenodd"/>
</svg>
