<svg xmlns="http://www.w3.org/2000/svg" width="24" height="24">
    <path d="M19.66 3.066c-.187.056-.384.244-2.929 2.785l-2.728 2.725-.012-1.419-.011-1.419-.102-.199c-.361-.701-1.395-.701-1.756 0l-.102.199-.011 2.698c-.012 3.052-.021 2.954.289 3.264.309.309.215.3 3.202.3 2.986 0 2.894.009 3.201-.299a.984.984 0 0 0 0-1.402c-.287-.287-.362-.299-1.917-.299h-1.363l2.725-2.73c2.477-2.482 2.73-2.748 2.789-2.927C20.971 4.234 21 4.08 21 4c0-.407-.292-.807-.681-.933-.25-.081-.394-.081-.659-.001M5.643 12.069C5.291 12.193 5 12.614 5 13c0 .396.291.808.66.934.166.056.393.066 1.556.066h1.363l-2.725 2.73c-2.477 2.482-2.73 2.748-2.789 2.927-.13.395-.044.77.241 1.047a.978.978 0 0 0 1.037.231c.179-.059.445-.312 2.927-2.789L10 15.421v1.363c0 1.555.012 1.63.299 1.917a.984.984 0 0 0 1.402 0c.308-.307.299-.215.299-3.201s.009-2.894-.299-3.201c-.308-.308-.213-.299-3.218-.296-2.304.003-2.687.012-2.84.066"
          fill-rule="evenodd"/>
</svg>