<svg xmlns="http://www.w3.org/2000/svg" width="24" height="24">
    <path d="M14.643 3.069C14.291 3.193 14 3.614 14 4c0 .396.291.808.66.934.166.056.393.066 1.557.066h1.363l-2.449 2.45c-2.025 2.026-2.463 2.484-2.535 2.649a.988.988 0 0 0 .903 1.39c.431.003.392.037 3.051-2.62L19 6.421v1.362c0 1.556.012 1.631.299 1.918a.984.984 0 0 0 1.402 0c.308-.307.299-.215.299-3.201s.009-2.894-.299-3.201c-.308-.308-.213-.299-3.218-.296-2.304.003-2.687.012-2.84.066m-4.563 9.534c-.138.062-.755.655-2.629 2.527l-2.448 2.446-.012-1.419-.011-1.419-.102-.199c-.361-.701-1.395-.701-1.756 0l-.102.199-.011 2.698c-.012 3.052-.021 2.954.289 3.264.309.309.215.3 3.202.3 2.986 0 2.894.009 3.201-.299a.984.984 0 0 0 0-1.402C9.414 19.012 9.339 19 7.783 19H6.42l2.449-2.45c2.652-2.654 2.623-2.62 2.622-3.049a.97.97 0 0 0-.989-.98c-.155 0-.306.03-.422.082"
          fill-rule="evenodd"/>
</svg>