<svg width="22" height="22" xmlns="http://www.w3.org/2000/svg">
    <path d="M.355.094a1.183 1.183 0 0 0-.246.244C.003.484 0 .499 0 .917c0 .415.003.433.107.576.058.081.156.183.217.226.255.182.316.188 1.93.188h1.512l1.164 5.82c.799 3.997 1.197 5.912 1.27 6.111a2.82 2.82 0 0 0 2.073 1.766c.413.079 9.698.079 10.111 0a2.821 2.821 0 0 0 2.073-1.765c.074-.205.317-1.399.824-4.057.696-3.645.719-3.781.719-4.227 0-.425-.007-.47-.09-.603a1.11 1.11 0 0 0-.214-.237c-.287-.219.25-.205-7.909-.205H6.318l-.375-1.879A91.692 91.692 0 0 0 5.531.623 1.032 1.032 0 0 0 5.164.11L5.012 0H.494L.355.094m19.518 6.417c0 .011-.281 1.492-.624 3.291-.39 2.041-.652 3.325-.696 3.416a.909.909 0 0 1-.473.408c-.193.069-9.31.069-9.503 0a.865.865 0 0 1-.472-.405c-.049-.1-.31-1.327-.717-3.361a886.217 886.217 0 0 0-.66-3.288l-.019-.082h6.582c3.62 0 6.582.009 6.582.021m-12.139 10.9c-.813.212-1.396.995-1.389 1.865a1.9 1.9 0 0 0 1.905 1.881 1.93 1.93 0 0 0 1.651-.942c.334-.551.334-1.379 0-1.93a1.935 1.935 0 0 0-2.167-.874m10.083 0c-.813.212-1.396.995-1.388 1.865a1.9 1.9 0 0 0 1.904 1.881c.851 0 1.631-.59 1.84-1.391.129-.493.054-1.08-.189-1.481a1.935 1.935 0 0 0-2.167-.874M8.323 19.25c0 .049-.024.073-.073.073-.049 0-.073-.024-.073-.073 0-.049.024-.073.073-.073.049 0 .073.024.073.073m10.084 0c0 .049-.025.073-.074.073-.049 0-.073-.024-.073-.073 0-.049.024-.073.073-.073.049 0 .074.024.074.073"
          fill-rule="evenodd"/>
</svg>
