<svg width="24" height="24" xmlns="http://www.w3.org/2000/svg">
    <path d="M9.207 2.043A8.055 8.055 0 0 0 4.9 3.847a7.857 7.857 0 0 0-2.1 2.682 7.993 7.993 0 0 0 .989 8.511c.286.354.972 1.027 1.311 1.286 1.643 1.255 3.734 1.85 5.732 1.632a8.205 8.205 0 0 0 3.633-1.326l.446-.301 2.714 2.717c1.493 1.494 2.791 2.762 2.883 2.817.459.274 1.079.103 1.359-.373.097-.165.113-.235.113-.492 0-.254-.016-.327-.107-.48-.061-.101-1.302-1.372-2.825-2.895l-2.717-2.714.301-.446a7.98 7.98 0 0 0 .568-7.936 7.857 7.857 0 0 0-2.1-2.682c-1.617-1.353-3.763-2.01-5.893-1.804m1.357 1.996a5.991 5.991 0 0 1 5.107 4.021c.497 1.457.397 3.191-.261 4.52-.86 1.736-2.354 2.898-4.25 3.305-.606.13-1.714.13-2.32 0-1.899-.407-3.389-1.566-4.25-3.305-.658-1.329-.758-3.063-.261-4.52a5.892 5.892 0 0 1 1.402-2.255 5.918 5.918 0 0 1 4.833-1.766m-.869 2.018a1.04 1.04 0 0 0-.567.459L9.02 6.7l-.012 1.15L8.995 9H7.944c-1.147 0-1.301.022-1.562.221-.08.061-.195.194-.254.295-.091.156-.108.23-.108.484 0 .256.016.328.111.489.061.103.173.236.25.294.261.2.357.213 1.527.215L8.995 11l.013 1.153.012 1.154.121.196a.998.998 0 0 0 1.718 0l.121-.196.012-1.154.013-1.153 1.087-.002c1.17-.002 1.266-.015 1.527-.215.077-.058.189-.191.25-.294.095-.161.111-.233.111-.489 0-.254-.017-.328-.108-.484a1.209 1.209 0 0 0-.254-.295C13.357 9.022 13.203 9 12.056 9h-1.051l-.013-1.15-.012-1.15-.108-.184a1.005 1.005 0 0 0-1.177-.459"
          fill-rule="evenodd"/>
</svg>